# xmcd CD database file
#
# Track frame offsets:
#	150
#	15795
#	31893
#	49435
#	64006
#	76800
#	91350
#	106050
#	119400
#	133800
#	146644
#	164250
#	178950
#	192091
#
# Disc length: 2768 seconds
#
# Revision: 2
# Processed by: cddbd v1.5.1PL0 Copyright (c) Steve Scherf et al.
# Submitted via: CDex 1.50
#
DISCID=b70ace0e
DTITLE=Jhonny and Rahony - Jhonny and Rahony
DYEAR=1900
DGENRE=Country
TTITLE0=Jhonny and Rahony - Saudade Matadeira
TTITLE1=Jhonny and Rahony - Quero
TTITLE2=Jhonny and Rahony - Te pego as dez
TTITLE3=Jhonny and Rahony - Saudade dela
TTITLE4=Jhonny and Rahony - Prisioneiro
TTITLE5=Jhonny and Rahony - Seu coração já me esqueceu
TTITLE6=Jhonny and Rahony - Chutando lata
TTITLE7=Jhonny and Rahony - Doidinho pra te namorar
TTITLE8=Jhonny and Rahony - Fora de Rodeio
TTITLE9=Jhonny and Rahony - Falando a verdade
TTITLE10=Jhonny and Rahony - Vai buscar o que é seu
TTITLE11=Jhonny and Rahony - A Aliança
TTITLE12=Jhonny and Rahony - Vem pra min
TTITLE13=Jhonny and Rahony - Louco pra te amar
EXTD=
EXTT0=
EXTT1=
EXTT2=
EXTT3=
EXTT4=
EXTT5=
EXTT6=
EXTT7=
EXTT8=
EXTT9=
EXTT10=
EXTT11=
EXTT12=
EXTT13=
PLAYORDER=
